Coordinates
version=1
nRows=16
nColumns=33
inDegrees=yes

Units are S.I. units (second, meters, Newtons, ...)
Angles are in degrees.

endheader
time	ground_thorax_rot_x	ground_thorax_rot_y	ground_thorax_rot_z	ground_thorax_tx	ground_thorax_ty	ground_thorax_tz	clav_prot_r	clav_elev_r	scapula_abduction_r	scapula_elevation_r	scapula_upward_rot_r	scapula_winging_r	shoulder_elv_r	plane_of_elev_r	axial_rot_r	elbow_flexion_r	pro_sup_r	wrist_flex_r	wrist_dev_r	clav_prot_l	clav_elev_l	scapula_abduction_l	scapula_elevation_l	scapula_upward_rot_l	scapula_winging_l	shoulder_elv_l	plane_of_elev_l	axial_rot_l	elbow_flexion_l	pro_sup_l	wrist_flex_l	wrist_dev_l
      2.53000000	     26.12662838	     34.00169442	     48.51620220	     56.56959604	    783.76072965	    -42.40785208	     13.38630803	     36.42728017	     29.60241851	     45.00000000	    -45.00000000	  -5123.00337376	  -1728.40632243	     20.64871701	   -156.40004917	   1801.70322729	   -188.06193989	     12.56106742	     11.78790872	    -13.71723131	    -45.00000000	    -34.63630479	     45.00000000	    -45.00000000	  -3861.42609956	  -1893.02835619	    136.31980940	   -132.55175111	    350.95745416	   -307.31735906	     10.08152282	    -16.33802804
      2.54000000	     26.18111664	     33.84610630	     48.35879474	     53.92601094	    783.70001718	    -42.32523725	     13.45932069	     36.33855053	     29.47272813	     45.00000000	    -45.00000000	  -5123.10620655	  -1728.30759411	     20.65197473	   -156.24498742	   1801.71245223	   -187.99912411	     12.59885047	     11.83978634	    -13.58264230	    -45.00000000	    -34.75220623	     45.00000000	    -45.00000000	  -3861.24476070	  -1892.99181939	    136.32197355	   -132.79489817	    350.95498710	   -307.53378372	     10.13384696	    -16.36055759
      2.55000000	     26.25281180	     33.64898310	     48.19079003	     51.20181220	    783.64404332	    -42.25820414	     13.48191324	     36.29073596	     29.38401075	     45.00000000	    -45.00000000	  -5123.20885842	  -1728.23287884	     20.64353486	   -156.10479573	   1801.70981152	   -187.94644177	     12.64440583	     11.88607646	    -13.48733009	    -45.00000000	    -34.85801427	     45.00000000	    -45.00000000	  -3861.07843528	  -1892.94565400	    136.34896302	   -132.99840288	    350.91227688	   -307.77189376	     10.20003729	    -16.37421515
      2.56000000	     26.36175193	     33.47482875	     48.00947119	     48.39466826	    783.60021148	    -42.20739190	     13.34745726	     36.33703880	     29.38336468	     45.00000000	    -45.00000000	  -5123.43157625	  -1728.20035002	     20.62819305	   -155.81778855	   1801.68999090	   -187.86578411	     12.71497333	     11.88122528	    -13.48135091	    -45.00000000	    -34.79960429	     45.00000000	    -45.00000000	  -3860.98704384	  -1892.77134227	    136.38108850	   -132.99021279	    350.85700363	   -307.99827149	     10.29533427	    -16.39093238
      2.57000000	     26.42732388	     33.30137290	     47.81412086	     45.50810769	    783.57467502	    -42.17341563	     13.44108897	     36.23094879	     29.22159902	     45.00000000	    -45.00000000	  -5123.50638701	  -1728.10693654	     20.63885941	   -155.74184368	   1801.71986346	   -187.81702844	     12.73319543	     11.96572903	    -13.32089788	    -45.00000000	    -34.94832180	     45.00000000	    -45.00000000	  -3860.78387638	  -1892.77286525	    136.37395058	   -133.26235799	    350.86821047	   -308.25499759	     10.34010097	    -16.41641815
      2.58000000	     26.51518194	     33.12557414	     47.62641500	     42.54337931	    783.57335782	    -42.15649954	     13.42108404	     36.19709527	     29.14489802	     45.00000000	    -45.00000000	  -5123.66191061	  -1728.04660102	     20.62906527	   -155.56040623	   1801.71715061	   -187.74505843	     12.77842054	     12.00279081	    -13.23758553	    -45.00000000	    -34.99406503	     45.00000000	    -45.00000000	  -3860.63783562	  -1892.66645667	    136.38209156	   -133.37606461	    350.81482087	   -308.50124898	     10.41280673	    -16.42628025
      2.59000000	     26.60886046	     32.98357564	     47.45689868	     39.50713535	    783.60135810	    -42.15594546	     13.33198697	     36.19369340	     29.08570379	     45.00000000	    -45.00000000	  -5123.89301335	  -1727.99379581	     20.60097141	   -155.26842649	   1801.65125617	   -187.64760107	     12.85577700	     12.00502545	    -13.18376125	    -45.00000000	    -34.95235171	     45.00000000	    -45.00000000	  -3860.53117398	  -1892.53525148	    136.41184914	   -133.41556820	    350.76865513	   -308.73238007	     10.49122534	    -16.43770263
      2.60000000	     26.71573166	     32.77869421	     47.22292465	     36.40473475	    783.66423586	    -42.17055319	     13.32900722	     36.15870330	     28.99712539	     45.00000000	    -45.00000000	  -5124.00458971	  -1727.92665467	     20.61144838	   -155.18035254	   1801.69707738	   -187.56202031	     12.86792156	     12.07408205	    -13.07403918	    -45.00000000	    -35.05073482	     45.00000000	    -45.00000000	  -3860.35358987	  -1892.44392582	    136.41515889	   -133.59570653	    350.75779201	   -308.96206160	     10.55363616	    -16.46970106
      2.61000000	     26.80395712	     32.64024310	     47.01354299	     33.24722391	    783.76729678	    -42.19852618	     13.31099864	     36.11454829	     28.89666372	     45.00000000	    -45.00000000	  -5124.19150477	  -1727.85272926	     20.57804470	   -154.99647117	   1801.67608101	   -187.45200386	     12.91689302	     12.10656818	    -12.97667386	    -45.00000000	    -35.08496756	     45.00000000	    -45.00000000	  -3860.21619114	  -1892.36136476	    136.39534591	   -133.71442271	    350.73905166	   -309.18654354	     10.61174742	    -16.48774239
      2.62000000	     26.90877779	     32.44447398	     46.79876907	     30.04047444	    783.91649286	    -42.23836170	     13.29920510	     36.08830021	     28.81852615	     45.00000000	    -45.00000000	  -5124.33278499	  -1727.77534307	     20.57488286	   -154.85856739	   1801.67064383	   -187.33987704	     12.95357348	     12.14856382	    -12.87747263	    -45.00000000	    -35.14940435	     45.00000000	    -45.00000000	  -3860.04537371	  -1892.28018770	    136.41713209	   -133.91231648	    350.71647103	   -309.40186939	     10.67343586	    -16.51166758
      2.63000000	     27.00962104	     32.22228511	     46.58585042	     26.79156723	    784.11778458	    -42.28882143	     13.26554729	     36.04383942	     28.73160079	     45.00000000	    -45.00000000	  -5124.46097459	  -1727.73364693	     20.58794709	   -154.67600921	   1801.63542271	   -187.21111495	     13.00018950	     12.18413981	    -12.75568472	    -45.00000000	    -35.23668826	     45.00000000	    -45.00000000	  -3859.85743982	  -1892.18765940	    136.45422810	   -134.07047133	    350.66054749	   -309.60677687	     10.73133051	    -16.51500123
      2.64000000	     27.12549716	     32.04950973	     46.33462854	     23.50738644	    784.37694974	    -42.34922482	     13.26665179	     36.01779024	     28.63818228	     45.00000000	    -45.00000000	  -5124.62700630	  -1727.65622168	     20.57677208	   -154.53798768	   1801.60601381	   -187.08051022	     13.04428638	     12.22124810	    -12.66844217	    -45.00000000	    -35.28790487	     45.00000000	    -45.00000000	  -3859.71390029	  -1892.08451528	    136.44322626	   -134.17581879	    350.61538431	   -309.80904964	     10.79272260	    -16.52172575
      2.65000000	     27.21680610	     31.84576122	     46.12690924	     20.19346690	    784.69865158	    -42.41894834	     13.25279511	     35.93729520	     28.53372146	     45.00000000	    -45.00000000	  -5124.74150405	  -1727.59073492	     20.59259141	   -154.39247728	   1801.60300977	   -186.93687227	     13.07424500	     12.25989429	    -12.52457832	    -45.00000000	    -35.38616319	     45.00000000	    -45.00000000	  -3859.51843152	  -1892.00477548	    136.47851158	   -134.39855958	    350.61033593	   -310.00865327	     10.83894161	    -16.53012499
      2.66000000	     27.34510824	     31.68334037	     45.85515375	     16.84881590	    785.08726029	    -42.49755756	     13.21817159	     35.95775402	     28.46903411	     45.00000000	    -45.00000000	  -5124.93098016	  -1727.50808464	     20.55916938	   -154.24009780	   1801.54990820	   -186.78188782	     13.13113104	     12.28519559	    -12.45582876	    -45.00000000	    -35.42719001	     45.00000000	    -45.00000000	  -3859.38851250	  -1891.89284663	    136.47821414	   -134.50306174	    350.56214809	   -310.19434934	     10.90991192	    -16.53959797
      2.67000000	     27.43574561	     31.50839383	     45.63642819	     13.48485708	    785.54444605	    -42.58401868	     13.29604665	     35.83261124	     28.32593205	     45.00000000	    -45.00000000	  -5125.01778514	  -1727.42546447	     20.57243791	   -154.23576304	   1801.56282788	   -186.63181080	     13.14293028	     12.36851108	    -12.27622151	    -45.00000000	    -35.55587635	     45.00000000	    -45.00000000	  -3859.13621765	  -1891.86998077	    136.48857944	   -134.76496863	    350.60088026	   -310.39349026	     10.94523892	    -16.56556728
      2.68000000	     27.53100470	     31.29977325	     45.39798694	     10.10209712	    786.07272877	    -42.67772614	     13.28055293	     35.79630261	     28.25763022	     45.00000000	    -45.00000000	  -5125.16832922	  -1727.34439580	     20.56504369	   -154.11636013	   1801.53153302	   -186.45230160	     13.18699273	     12.40787920	    -12.16584372	    -45.00000000	    -35.63747316	     45.00000000	    -45.00000000	  -3858.98438011	  -1891.77395145	    136.49941658	   -134.89464646	    350.56866083	   -310.57016045	     11.00273758	    -16.57352649
